<svg width="800" height="400" viewBox="0 0 800 400" xmlns="http://www.w3.org/2000/svg" style="background:#1e293b">
<defs>
    <!-- Aggregation Marker -->
    <marker id="agg" markerWidth="10" markerHeight="10" refX="10" refY="5" orient="auto">
        <path d="M0,5 L10,0 L10,10 z" fill="#e2e8f0" />
    </marker>
    <!-- Generalization Marker (White Triangle) -->
    <marker id="gen" markerWidth="10" markerHeight="10" refX="10" refY="5" orient="auto">
        <path d="M0,5 L10,0 L10,10 z" fill="none" stroke="#e2e8f0" stroke-width="1.5" />
    </marker>
    <!-- Agent Link (Filled Circle) -->
    <marker id="agent" markerWidth="10" markerHeight="10" refX="5" refY="5" orient="auto">
        <circle cx="5" cy="5" r="4" fill="#e2e8f0" />
    </marker>
    <!-- Instrument Link (Empty Circle) -->
    <marker id="inst" markerWidth="10" markerHeight="10" refX="5" refY="5" orient="auto">
        <circle cx="5" cy="5" r="4" fill="#1e293b" stroke="#e2e8f0" stroke-width="1.5" />
    </marker>
    <!-- Arrowhead -->
    <marker id="arrow" markerWidth="10" markerHeight="10" refX="10" refY="5" orient="auto">
        <path d="M0,0 L10,5 L0,10" fill="none" stroke="#e2e8f0" stroke-width="1.5" />
    </marker>
</defs>
<style>
    .obj { fill: #22c55e; stroke: #e2e8f0; stroke-width: 2; }
    .proc { fill: #3b82f6; stroke: #e2e8f0; stroke-width: 2; rx: 30; ry: 30; }
    .text { fill: #e2e8f0; font-family: 'Segoe UI', sans-serif; font-weight: bold; font-size: 16px; text-anchor: middle; }
    .link { stroke: #e2e8f0; stroke-width: 2; fill: none; }
    .label { fill: #94a3b8; font-family: 'Segoe UI', sans-serif; font-size: 14px; text-anchor: middle; }
</style>

    <!-- Aggregation -->
    <text x="100" y="50" class="text" style="text-anchor:start">Aggregation (Whole-Part)</text>
    <rect x="100" y="70" width="100" height="50" class="obj" /> <text x="150" y="100" class="text">Car</text>
    <path d="M150,120 L150,160 L100,200" class="link" marker-start="url(#agg)" marker-end="url(#arrow)" />
    <path d="M150,120 L150,160 L200,200" class="link" />
    <rect x="50" y="200" width="80" height="40" class="obj" /> <text x="90" y="225" class="text">Wheel</text>
    <rect x="170" y="200" width="80" height="40" class="obj" /> <text x="210" y="225" class="text">Engine</text>

    <!-- Generalization -->
    <text x="450" y="50" class="text" style="text-anchor:start">Generalization (Inheritance)</text>
    <rect x="450" y="70" width="100" height="50" class="obj" /> <text x="500" y="100" class="text">Person</text>
    <path d="M500,120 L500,160 L450,200" class="link" marker-start="url(#gen)" />
    <path d="M500,120 L500,160 L550,200" class="link" />
    <rect x="400" y="200" width="80" height="40" class="obj" /> <text x="440" y="225" class="text">Student</text>
    <rect x="520" y="200" width="80" height="40" class="obj" /> <text x="560" y="225" class="text">Teacher</text>

</svg>